<?xml version="1.0" encoding="UTF-8" standalone="no"?>
<svg
   width="344.10199"
   height="322.83588"
   viewBox="-702 0 344.10199 322.83588"
   version="1.2"
   id="svg282"
   sodipodi:docname="Oscpedale.svg"
   inkscape:version="1.1.2 (0a00cf5339, 2022-02-04)"
   xmlns:inkscape="http://www.inkscape.org/namespaces/inkscape"
   xmlns:sodipodi="http://sodipodi.sourceforge.net/DTD/sodipodi-0.dtd"
   xmlns="http://www.w3.org/2000/svg"
   xmlns:svg="http://www.w3.org/2000/svg"
   xmlns:rdf="http://www.w3.org/1999/02/22-rdf-syntax-ns#"
   xmlns:cc="http://creativecommons.org/ns#"
   xmlns:dc="http://purl.org/dc/elements/1.1/"><defs
   id="defs286" />
<sodipodi:namedview
   id="namedview284"
   pagecolor="#ffffff"
   bordercolor="#666666"
   borderopacity="1.0"
   inkscape:pageshadow="2"
   inkscape:pageopacity="0.0"
   inkscape:pagecheckerboard="0"
   showgrid="false"
   fit-margin-top="0"
   fit-margin-left="0"
   fit-margin-right="0"
   fit-margin-bottom="0"
   inkscape:zoom="0.44871795"
   inkscape:cx="167.14286"
   inkscape:cy="403.37143"
   inkscape:window-width="1920"
   inkscape:window-height="1022"
   inkscape:window-x="0"
   inkscape:window-y="30"
   inkscape:window-maximized="1"
   inkscape:current-layer="svg282" />
<title
   id="title2">Oscpedale</title>
\n<g
   id="g8"
   transform="translate(-534.949,-533.58207)">
  <path
     fill="none"
     stroke="#000000"
     stroke-width="4"
     stroke-linecap="round"
     stroke-linejoin="round"
     d="m 71.1427,700.506 0.5031,-0.088 0.419,-1.128 -0.4097,-1.987 0.8596,-2.285 0.085,0.366 -0.04,-1.275 -0.2369,-0.442 -0.1321,0.469 0.2474,-0.996 -0.276,0.406 0.2594,0.077 -0.2744,0.184 0.1244,0.547 -0.2073,-0.052 -0.3736,1.023 -2.1233,2.339 -1.9848,2.852 -1.3191,1.153 -0.5199,0.936 -1.9307,1.613 -0.9843,1.347 -2.6024,4.261 -1.0546,1.055 -2.1459,3.189 -2.1664,3.584 -3.528,7.137 -4.9909,7.463 -3.8968,6.886 -3.5721,5.193 -1.6452,3.225 -2.8044,3.785 -0.5147,0.312 -1.8523,3.382 -3.3431,4.286 -5.4557,8.857 -1.6636,1.556 -1.1946,2.098 -0.5259,0.186 -2.6763,4.592 -5.5499,7.276 -0.2281,0.904 -2.19333,2.712 -0.37237,0.102 -1.20136,2.199 -2.00512,2.252 -0.5307,1.47 -2.19275,3.562 -0.45453,0.493 -0.29218,-0.174 -0.26098,1.744 -0.1048,-0.563 -0.19891,0.118 0.16717,-0.393 1.87189,-2.272"
     id="path6" />
</g>
<g
   id="g12"
   transform="translate(-534.949,-533.58207)">
  <path
     fill="none"
     stroke="#000000"
     stroke-width="4"
     stroke-linecap="round"
     stroke-linejoin="round"
     d="m 70.1286,696.089 -0.2141,-1.669 -0.2812,1.369 0.3695,0.214 -0.1333,0.414 0.2203,-0.402 -0.166,0.505 1.7795,4.29 0.544,2.303 0.8205,1.696 1.3473,1.442 4.3878,6.96 1.063,2.23 1.5808,4.963 1.9646,4.398 3.745,6.078 2.9263,3.798 0.426,0.163 5.0472,12.639 1.162,2.053 2.0099,2.402 0.7172,2.167 0.7461,0.524 0.594,1.04 0.742,2.291 1.623,3.171 0.689,0.714 1.395,3.159 0.723,0.428 2.43,2.952 0.487,1.001 1.098,0.959 0.772,1.397 1.563,1.401 0.578,1.583 0.34,-0.276 0.205,0.317 0.095,-0.463 -0.292,0.635 -0.996,-1.31 -1.229,-0.808"
     id="path10" />
</g>
<g
   id="g16"
   transform="translate(-534.949,-533.58207)">
  <path
     fill="none"
     stroke="#000000"
     stroke-width="4"
     stroke-linecap="round"
     stroke-linejoin="round"
     d="m -3.63852,805.269 -0.15332,-1.238 0.23023,-0.527 0.88433,-0.019 0.94562,-0.929 5.79083,-1.853 1.25165,0.061 0.63483,0.595 1.00671,-0.572 1.63312,-0.139 3.02292,-1.019 3.0124,-0.211 2.2284,-0.583 0.9195,0.127 5.8668,-1.185 1.2116,-0.611 3.1172,-0.235 2.872,-0.869 1.2656,0.087 3.7545,-1.552 7.7605,-1.403 0.8337,-0.535 4.8671,-0.776 5.648,-0.374 2.1938,-0.534 1.9005,0.113 0.7617,-0.473 1.5286,0.072 0.8185,0.409 2.0453,-0.965 2.0552,-0.352 0.9329,-0.464 2.7353,0.003 7.7718,-1.685 3.705,-0.166 6.0938,-1.148 0.7293,0.48 0.3415,-0.356 4.3523,-1.016 4.3558,-0.364 0.3996,0.365 5.4164,-1.793 0.495,0.139 2.477,-1.074 2.48,-0.306 2.205,-0.719 0.228,-0.436 0.831,0.379 0.455,-0.411 0.03,0.277 0.345,-0.702 0.469,0.613 0.168,-0.414 0.316,0.181 -0.22,0.442 -0.167,-0.904 0.315,-0.449"
     id="path14" />
</g>
<g
   id="g20"
   transform="translate(-534.949,-533.58207)">
  <path
     fill="none"
     stroke="#000000"
     stroke-width="4"
     stroke-linecap="round"
     stroke-linejoin="round"
     d="m 134.922,703.636 -0.317,-1.027 -0.505,-0.417 -0.226,0.574 -0.362,-0.674 -0.719,-0.357 -2.354,-0.76 -0.415,0.158 -1.174,-0.602 -0.549,0.142 -0.193,-0.321 -1.18,0.763 -1.047,-0.26 -0.516,0.388 -1.757,-0.045 -8.584,1.739 -3.006,1.376 -0.883,0.219 -0.416,-0.333 -1.884,1.454 -5.034,1.897 -5.8502,3.218 -0.5054,-0.156 -3.7797,2.733 -1.4655,0.52 -3.6112,2.666 -3.4136,3.353 -0.3579,-0.062 -2.2176,2.049 -0.2045,-0.101 -0.4548,0.68 -4.0222,3.347 -3.9488,4.217 -0.5396,0.095 -1.2137,1.724 -0.5595,0.297 -1.2646,2.512 -0.5367,0.36 -0.1339,-0.191 -0.9658,1.699 -5.9217,6.941 -2.1356,3.702 -2.6354,3.549 -1.472,2.995 -2.1022,2.911 -2.1131,5.108 -0.9162,3.407 -0.6856,1.584 -0.5293,0.199 -3.1673,8.659 -1.5846,6.28 -0.756,1.687 -0.7229,6.852 -1.2443,5.423 -0.2525,3.975 0.448,2.71 -0.1499,2.623 0.5803,3.469 2.1054,7.563 0.5181,0.63 1.7482,4.572 1.2212,1.713 0.7281,0.631 0.3765,-0.123 3.0149,5.105 2.6634,3.44 4.3352,4.5 1.5647,0.207 4.4305,2.919 1.6694,0.698 0.7074,-0.114 3.9114,1.827 4.9011,1.276 4.8398,0.512 0.8635,-0.349 1.7281,0.264 0.9817,0.722 2.0952,-0.461 3.0599,0.037 1.1456,-0.683 1.9871,0.441 6.0661,-0.015 5.594,-1.556 3.396,-0.475 1.122,0.174 5.252,-1.319 0.849,-0.465 4.871,-0.709 3.053,-0.956 0.906,-0.665 4.008,-1.036 2.217,-1.038 0.962,0.204 1.79,-1.275 2.623,-1.216 1.585,-1.59 1.653,-0.58 0.619,-0.756 1.992,-1 2.092,-1.914 1.348,-0.518 1.096,-1.072 2.76,-1.675 3.499,-3.584 4.486,-6.726 1.368,-2.45 0.409,-1.394 2.965,-4.496 1.641,-3.942 1.497,-4.823 3.164,-12.497 2.036,-6.436 1.629,-8.564 0.856,-8.102 1.536,-9.698 0.119,-3.164 -1.398,-16.504 -1.652,-5.004 -2.496,-5.24 -1.24,-0.927 -0.872,-1.547 -1.473,-1.585 -0.426,-1.141 -2.172,-2.041 -2.854,-2.23 -1.741,-0.652 -0.391,-0.719 -1.454,-0.981 -2.688,-1.39 -0.313,-0.618 -1.63,-0.107 -0.788,-0.475 -0.357,0.212 -1.249,-0.833 -5.642,-0.969 -1.814,-1.008 -3.304,-0.553 -0.419,0.472 -1.022,-0.967 -3.298,-0.936 -1.674,0.03 -0.401,-0.294 -3.007,0.547 -0.567,0.469 -0.988,-0.515 -0.624,0.122 -0.294,-0.47 -1.036,0.642 -4.018,-1.133 -0.807,0.254 -0.253,-0.521 -0.246,0.24 -0.044,-0.259 -0.035,0.551 -0.139,-0.394 -0.355,0.122"
     id="path18" />
</g>
<g
   id="g24"
   transform="translate(-534.949,-533.58207)">
  <path
     fill="none"
     stroke="#000000"
     stroke-width="4"
     stroke-linecap="round"
     stroke-linejoin="round"
     d="m 63.8931,695.948 -0.0591,-1.176 0.0466,0.491 -0.2693,0.152 0.3904,-0.534 -0.1836,-1.817 0.43,-9.964 0.8432,-7.217 -0.5813,0.674 0.2358,1.48 -0.0992,10.94 0.612,0.41 0.2029,1.016 0.3934,0.089 -0.2651,-0.199 -0.0926,0.366 0.0294,-0.786 -1.3604,5.042 -0.2964,1.376 0.1529,1.103"
     id="path22" />
</g>
<g
   id="g28"
   transform="translate(-534.949,-533.58207)">
  <path
     fill="none"
     stroke="#000000"
     stroke-width="4"
     stroke-linecap="round"
     stroke-linejoin="round"
     d="m -64.2501,724.166 -0.2661,0.01 0.4362,0.36 0.1015,-0.223 0.1673,0.209 1.4199,-0.297 1.0059,0.451 2.8685,-0.605 4.366,-0.122 7.2213,-1.309 9.4044,-1.015 9.2216,-1.681 5.2801,-0.317 5.1324,-1.13 0.9223,-0.521 1.4946,-0.063 0.6852,0.28 4.83432,-1.909 2.38287,-0.093 7.4838889,-1.589 5.4410411,-0.565 1.59119,-0.668 1.09503,-0.077 2.13896,-0.986 2.1096,-0.216 3.9726,-1.171 5.204,-0.981 1.3666,0.017 5.7756,-1.666 1.4583,0.154 1.6731,-0.639 0.6356,0.31 0.3191,-0.309 6.371,-1.632 4.2389,-0.618 2.269,-0.825 3.5584,-0.488 1.6752,-0.712 1.6476,-0.025 0.6696,-0.404 2.213,-0.323 5.8755,-1.734 0.4588,-0.408 0.7218,-0.103 0.559,0.351 0.1685,-0.292 1.9079,-0.583 0.4328,-0.48 1.0683,0.205 1.7653,-0.698 2.3324,-0.21 1.0111,-0.297 0.0418,-0.301 0.0496,0.493 0.0715,-0.637 -0.4866,0.843"
     id="path26" />
</g>
<g
   id="g32"
   transform="translate(-534.949,-533.58207)">
  <path
     fill="none"
     stroke="#000000"
     stroke-width="4"
     stroke-linecap="round"
     stroke-linejoin="round"
     d="m -76.5811,730.746 0.3285,-0.596 0.738,-0.241 3.1009,-0.053 2.1603,0.883 2.1459,1.847 1.8914,2.431 6.354,6.705 4.5281,5.982 3.5004,2.556 2.5297,2.794 2.1519,1.638 5.0831,4.972 2.2789,4.029 2.4407,2.679 1.1461,2.861 2.1578,3.093 0.974,2.595 1.81,3.02 3.8235,4.722 4.3682,4.416 1.4652,0.813 1.1526,1.547 5.8725,4.452 1.3799,1.822 1.1207,0.4 0.3682,0.609 0.8472,0.182 1.65567,1.997 2.90905,1.561 1.53034,1.473 0.62396,0.154 1.21503,1.469 0.77032,-0.036 2.687991,1.89 0.339356,0.132 0.124817,-0.249 0.531006,0.308 0.52899,1.131 -0.04394,-0.793 -0.19336,0.236 -0.72547,-0.14 -1.0479711,0.648"
     id="path30" />
</g>
<g
   id="g36"
   transform="translate(-534.949,-533.58207)">
  <path
     fill="none"
     stroke="#000000"
     stroke-width="4"
     stroke-linecap="round"
     stroke-linejoin="round"
     d="m -59.1183,786.985 -0.3307,0.833 0.3332,-0.884 -0.8518,-2.313 -1.6457,-2.371 -3.0711,-3.409 -0.3422,-0.896 -1.0332,-0.735 -1.1636,-1.598 -0.7598,-1.272 -0.3314,-1.292 -0.939,-0.643 -5.5691,-6.227 -7.2725,-5.826 -4.2285,-2.481 -0.6701,-0.77 -6.6284,-2.667 -3.8342,-2.034 -0.5208,-0.574 -3.2208,-0.87 -1.87,-1.119 -1.767,-0.376 -0.683,-0.7 -0.339,0.156 -1.259,-0.493 -6.817,-1.333 -6.273,-0.323 -1.069,-0.398 -2.74,0.079 -2.486,0.827 -2.075,-0.12 -1.104,0.397 -5.792,0.751 -6.513,1.862 -2.955,1.329 -0.448,-0.201 -0.556,0.691 -2.946,1.691 -0.473,0.776 -0.392,-0.033 -1.913,2.624 -1.924,1.699 -2.131,3.026 -1.105,1.053 -2.372,4.303 -0.265,-0.012 -0.653,2.756 -0.937,2.145 -0.74,4.247 -1.402,5.358 -0.401,0.605 -0.959,8.478 0.137,3.396 -0.631,5.744 0.759,7.655 -0.222,0.937 1.516,3.648 1.406,6.745 1.977,3.254 3.024,3.611 4.038,3.45 1.999,2.494 0.972,0.346 2.521,1.942 0.748,-0.068 1.459,1.962 1.749,1.011 0.324,0.63 2.032,0.693 0.466,0.623 2.804,0.412 2.835,1.162 3.186,1.644 2.508,1.733 8.412,2.143 12.699,0.726 8.8955,-1.555 0.9735,-0.521 1.4928,-0.182 0.7736,0.388 1.5419,-0.699 4.3957,-0.907 0.9862,-0.771 1.3751,-0.065 11.1988,-3.436 0.9869,0.03 1.4016,-0.916 1.0498,-0.141 3.844,-2.11 1.0699,-0.932 3.2773,-1.582 3.0629,-2.281 0.6732,-0.92 1.222,-0.397 4.5305,-3.172 0.9625,-0.295 5.1663,-4.699 1.7979,-3.54 1.8379,-5.547 0.7388,-3.192 0.0826,-2.811 -0.2277,-5.551 -1.017,-5.067 -0.884,-1.018 -2.5878,-6.734 -0.7845,-1.762 -1.5013,-2.044 0.031,-0.421 -4.4318,-4.453 -4.3071,-2.449 -2.819,-2.233 -1.0839,-0.463 -0.4061,0.133 -1.4187,-1.228 -3.4014,-0.465 -1.7545,0.38 -1.5555,1.109"
     id="path34" />
</g>
<g
   id="g40"
   transform="translate(-534.949,-533.58207)">
  <path
     fill="none"
     stroke="#000000"
     stroke-width="4"
     stroke-linecap="round"
     stroke-linejoin="round"
     d="m -77.0133,731.82 -1.0812,-0.937 0.2968,-0.036 0.9532,-1.941 3.2186,-3.322 2.8362,-0.478 1.1099,0.208 0.7409,0.971 -0.2495,0.991 -0.7518,1.246 -0.0213,-0.321 0.4252,-0.303 -0.2621,-0.238"
     id="path38" />
</g>
<g
   id="g44"
   transform="translate(-534.949,-533.58207)">
  <path
     fill="none"
     stroke="#000000"
     stroke-width="4"
     stroke-linecap="round"
     stroke-linejoin="round"
     d="m -111.314,804.075 0.666,0.222 -0.676,-0.185 -0.721,-0.876 0.218,-1.754 0.459,-1 1.613,-1.546 1.301,2.481 -0.172,2.605 -1.534,2.729 -1.406,1.61 0.03,-0.311 -0.111,0.211 -0.934,-0.74 -0.975,-1.701 0.054,-1.385 0.851,-1.397 1.179,-0.906 1.096,1.533 0.051,1.138 -0.685,1.665 -0.502,0.278 -0.346,1.175 -0.012,-0.36 -1.353,-1.108 -0.276,-1.411 0.146,-1.949 0.41,-0.192 0.115,-0.951 -0.074,0.323 0.307,-0.311 2.722,-4.963 0.815,-2.285 0.777,-0.84 2.03,-3.665 1.267,-3.279 5.2459,-10.653 3.5363,-8.899 12.9388,-28.17 3.0365,-5.925 2.7472,-4.125 2.542,-5.493 0.3021,-1.275 1.6015,-2.68 3.9044,-5.722 2.9037,-5.326 3.7561,-5.054 2.4924,-4.398 1.3859,-1.478 0.3344,0.211 0.8474,-2.239 2.241,-3.133 -0.051,-0.649 0.0238,0.427 -0.3163,-0.381 0.0803,0.63 0.0732,-0.459 -0.2817,0.514 -0.1915,-0.351 -0.2968,0.774 -1.1049,0.615 -1.7255,2.051 -0.51,3.132"
     id="path42" />
</g>
<g
   id="g48"
   transform="translate(-534.949,-533.58207)">
  <path
     fill="none"
     stroke="#000000"
     stroke-width="4"
     stroke-linecap="round"
     stroke-linejoin="round"
     d="m 2.35843,785.686 -0.40851,0.524 0.02582,-0.35 -0.37683,-0.237 -0.04004,-1.006 -0.955141,-0.456 -0.118286,-0.985 -1.001221,-1.753 -0.056823,-1.221 0.265136,-0.02 0.2566532,-0.923 0.1070557,0.851 -0.1410522,0.213 -0.3834837,-0.308 -0.292237,1.902 -0.839351,2.301 0.1073,0.474 0.645809,0.399"
     id="path46" />
</g>
<g
   id="g52"
   transform="translate(-534.949,-533.58207)">
  <path
     fill="none"
     stroke="#000000"
     stroke-width="4"
     stroke-linecap="round"
     stroke-linejoin="round"
     d="m 7.09775,786.754 -0.31403,-0.268 0.39099,-0.671 0.9549,-0.764 0.82049,-1.238 1.6509,-0.429 1.212,0.479 0.2052,0.478"
     id="path50" />
</g>
<g
   id="g56"
   transform="translate(-534.949,-533.58207)">
  <path
     fill="none"
     stroke="#000000"
     stroke-width="4"
     stroke-linecap="round"
     stroke-linejoin="round"
     d="m 8.92972,791.446 -0.46686,0.512 2.98284,-0.793 0.2817,-0.324 1.8357,0.318 1.9959,-0.559 1.8237,0.665 0.2603,0.417"
     id="path54" />
</g>
<g
   id="g60"
   transform="translate(-534.949,-533.58207)">
  <path
     fill="none"
     stroke="#000000"
     stroke-width="4"
     stroke-linecap="round"
     stroke-linejoin="round"
     d="m 12.0966,796.352 0.1811,1.367 0.7832,0.127 1.8672,1.781 1.0862,0.526 0.3982,-0.147 0.7652,0.867 0.8057,0.341"
     id="path58" />
</g>
<g
   id="g64"
   transform="translate(-534.949,-533.58207)">
  <path
     fill="none"
     stroke="#000000"
     stroke-width="4"
     stroke-linecap="round"
     stroke-linejoin="round"
     d="m 9.66373,807.18 0.08569,-0.38 0.93568,2.702 0.3047,2.562"
     id="path62" />
</g>
<g
   id="g68"
   transform="translate(-534.949,-533.58207)">
  <path
     fill="none"
     stroke="#000000"
     stroke-width="4"
     stroke-linecap="round"
     stroke-linejoin="round"
     d="m 1.53513,815.522 -0.48395,0.154 -0.578188,1.947 -0.102112,-0.318 -2.01105,1.781"
     id="path66" />
</g>
<g
   id="g72"
   transform="translate(-534.949,-533.58207)">
  <path
     fill="none"
     stroke="#000000"
     stroke-width="4"
     stroke-linecap="round"
     stroke-linejoin="round"
     d="m -8.62094,819.674 -0.40784,-1.225 -1.28492,0.712 -1.7755,-0.069 -0.8233,0.858 -0.2848,-0.723"
     id="path70" />
</g>
<g
   id="g76"
   transform="translate(-534.949,-533.58207)">
  <path
     fill="none"
     stroke="#000000"
     stroke-width="4"
     stroke-linecap="round"
     stroke-linejoin="round"
     d="m -17.5589,813.985 -1.2999,0.096 -1.0521,-0.429 -0.5929,0.259 -0.0944,-0.333 -1.4797,-0.733"
     id="path74" />
</g>
<g
   id="g80"
   transform="translate(-534.949,-533.58207)">
  <path
     fill="none"
     stroke="#000000"
     stroke-width="4"
     stroke-linecap="round"
     stroke-linejoin="round"
     d="m -22.497,804.118 -0.7699,-1.496 -0.2928,-2.012"
     id="path78" />
</g>
<g
   id="g84"
   transform="translate(-534.949,-533.58207)">
  <path
     fill="none"
     stroke="#000000"
     stroke-width="4"
     stroke-linecap="round"
     stroke-linejoin="round"
     d="m -15.1561,787.59 0.7016,-1.568 1.2395,-1.485"
     id="path82" />
</g>
<g
   id="g88"
   transform="translate(-534.949,-533.58207)">
  <path
     fill="none"
     stroke="#000000"
     stroke-width="4"
     stroke-linecap="round"
     stroke-linejoin="round"
     d="m -7.92435,779.601 1.36884,-1.862 1.99463,-0.776"
     id="path86" />
</g>
<g
   id="g92"
   transform="translate(-534.949,-533.58207)">
  <path
     fill="none"
     stroke="#000000"
     stroke-width="4"
     stroke-linecap="round"
     stroke-linejoin="round"
     d="m -2.48233,778.718 -0.45886,0.051 0.11603,-0.257 0.58117,-0.037 0.2862,0.335 2.368282,-0.757 0.545227,-0.443 6.531071,0.608 8.16241,-0.49 0.7801,0.074 0.4057,0.456 0.4222,-0.329 5.8484,-1.018"
     id="path90" />
</g>
<g
   id="g96"
   transform="translate(-534.949,-533.58207)">
  <path
     fill="none"
     stroke="#000000"
     stroke-width="4"
     stroke-linecap="round"
     stroke-linejoin="round"
     d="m 36.9828,775.517 0.6135,-0.768 1.4651,-0.757 1.6189,-0.132 5.2659,-1.624 3.7794,-0.037"
     id="path94" />
</g>
<g
   id="g100"
   transform="translate(-534.949,-533.58207)">
  <path
     fill="none"
     stroke="#000000"
     stroke-width="4"
     stroke-linecap="round"
     stroke-linejoin="round"
     d="m 58.071,770.753 1.9587,0.403 1.7562,-0.609 3.2166,-2.013 4.0752,-0.167"
     id="path98" />
</g>
<g
   id="g104"
   transform="translate(-534.949,-533.58207)">
  <path
     fill="none"
     stroke="#000000"
     stroke-width="4"
     stroke-linecap="round"
     stroke-linejoin="round"
     d="m 77.2968,767.477 -0.0874,0.212 0.3395,-0.07 1.4995,-1.624 2.0648,-0.696"
     id="path102" />
</g>
<g
   id="g108"
   transform="translate(-534.949,-533.58207)">
  <path
     fill="none"
     stroke="#000000"
     stroke-width="4"
     stroke-linecap="round"
     stroke-linejoin="round"
     d="m 91.5775,763.195 0.0794,0.414 0.5954,0.114 1.0677,-0.23"
     id="path106" />
</g>
<g
   id="g112"
   transform="translate(-534.949,-533.58207)">
  <path
     fill="none"
     stroke="#000000"
     stroke-width="4"
     stroke-linecap="round"
     stroke-linejoin="round"
     d="m 101.704,761.76 0.512,-0.359 0.501,0.115 1.203,-0.779 1.795,-0.255 0.802,0.018 0.324,0.367 1.852,0.009 3.643,1.266 0.474,-0.207"
     id="path110" />
</g>
<g
   id="g116"
   transform="translate(-534.949,-533.58207)">
  <path
     fill="none"
     stroke="#000000"
     stroke-width="4"
     stroke-linecap="round"
     stroke-linejoin="round"
     d="m 114.736,763.778 -0.12,0.248 0.245,-0.342 2.976,-0.866"
     id="path114" />
</g>
<g
   id="g120"
   transform="translate(-534.949,-533.58207)">
  <path
     fill="none"
     stroke="#000000"
     stroke-width="4"
     stroke-linecap="round"
     stroke-linejoin="round"
     d="m 124.55,765.073 0.261,0.371 4.096,-0.372 1.798,0.964"
     id="path118" />
</g>
<g
   id="g124"
   transform="translate(-534.949,-533.58207)">
  <path
     fill="none"
     stroke="#000000"
     stroke-width="4"
     stroke-linecap="round"
     stroke-linejoin="round"
     d="m 135.486,771.933 -0.611,0.822 -0.339,1.716"
     id="path122" />
</g>
<g
   id="g128"
   transform="translate(-534.949,-533.58207)">
  <path
     fill="none"
     stroke="#000000"
     stroke-width="4"
     stroke-linecap="round"
     stroke-linejoin="round"
     d="m 127.246,789.075 -1.883,1.323 -1.647,1.894"
     id="path126" />
</g>
<g
   id="g132"
   transform="translate(-534.949,-533.58207)">
  <path
     fill="none"
     stroke="#000000"
     stroke-width="4"
     stroke-linecap="round"
     stroke-linejoin="round"
     d="m 116.848,797.825 -4.186,2.742 -0.43,-0.02 -1.216,1.393"
     id="path130" />
</g>
<g
   id="g136"
   transform="translate(-534.949,-533.58207)">
  <path
     fill="none"
     stroke="#000000"
     stroke-width="4"
     stroke-linecap="round"
     stroke-linejoin="round"
     d="m 100.44,806.941 -2.3229,1.535 -6.5523,2.686 -5.9918,0.349"
     id="path134" />
</g>
<g
   id="g140"
   transform="translate(-534.949,-533.58207)">
  <path
     fill="none"
     stroke="#000000"
     stroke-width="4"
     stroke-linecap="round"
     stroke-linejoin="round"
     d="m 69.9226,814.7 -1.9702,0.495 -3.0384,0.02 -2.873,-0.314 -1.6304,-0.81"
     id="path138" />
</g>
<g
   id="g144"
   transform="translate(-534.949,-533.58207)">
  <path
     fill="none"
     stroke="#000000"
     stroke-width="4"
     stroke-linecap="round"
     stroke-linejoin="round"
     d="m 48.7898,817.572 -3.8374,-0.018 -2.8318,0.492 -1.8687,-0.421 -0.9193,0.349 -0.2611,-0.242 -0.5367,0.633"
     id="path142" />
</g>
<g
   id="g148"
   transform="translate(-534.949,-533.58207)">
  <path
     fill="none"
     stroke="#000000"
     stroke-width="4"
     stroke-linecap="round"
     stroke-linejoin="round"
     d="m 25.0429,821.824 -1.2166,-0.425 -2.1441,-0.087 -3.764,0.495 -1.0308,-0.126 -0.3053,0.319 -1.215,-0.299"
     id="path146" />
</g>
<g
   id="g152"
   transform="translate(-534.949,-533.58207)">
  <path
     fill="none"
     stroke="#000000"
     stroke-width="4"
     stroke-linecap="round"
     stroke-linejoin="round"
     d="m -1.09836,820.459 -3.10785,-0.48 -1.53119,0.36 -3.36609,1.67 -0.19573,-0.176 -0.89038,0.667 -1.3298,0.256"
     id="path150" />
</g>
<g
   id="g156"
   transform="translate(-534.949,-533.58207)">
  <path
     fill="none"
     stroke="#000000"
     stroke-width="4"
     stroke-linecap="round"
     stroke-linejoin="round"
     d="m -1.46103,802.825 -0.86859,0.02 0.41431,0.142 -0.22541,0.141 0.22815,0.414 0.00873,-0.4 -0.0462,0.429 0.51349,-0.974 0.10864,0.265 -0.03009,-3.773 1.074766,-5.108 0.389527,-3.858 2.209657,-7.693 1.46039,-3.777 0.19806,-1.9 0.31713,-0.166 0.0401,0.702 0.04053,-0.869 -0.46844,0.559 0.06054,0.447 -0.29119,-0.536 1.79125,1.448"
     id="path154" />
</g>
<g
   id="g160"
   transform="translate(-534.949,-533.58207)">
  <path
     fill="none"
     stroke="#000000"
     stroke-width="4"
     stroke-linecap="round"
     stroke-linejoin="round"
     d="m 4.03494,780.246 -0.92596,0.077 1.04376,-0.254 0.11969,0.239 0.11151,-0.503 1.68262,-1.148 2.79748,-1.084 3.28246,-2.521 2.6126,-1.332 0.9041,-1.123 0.875,0.069 4.7605,-1.562 -0.6095,-0.051 -0.698,0.773 -1.4535,0.035 -2.8343,0.826 -1.3367,-0.078 -0.6435,0.27 -6.2803,3.424 -1.36816,1.583 0.27704,0.225 0.13842,-0.412 0.89875,-0.245 0.82281,-0.895 0.19367,0.284 1.45739,-0.405 3.01448,-1.445 1.0823,0.145 2.7513,-2.381 5.0348,-2.538 1.942,-0.393 -6.7092,1.844 -4.4138,2.252 -1.427,0.261 -4.02463,2.544 -1.64386,1.731 1.06634,-0.192 1.24829,-1.416 1.04889,0.046 1.34267,-0.619 0.5121,-0.942 1.118,-0.208 0.6789,0.283"
     id="path158" />
</g>
<g
   id="g164"
   transform="translate(-534.949,-533.58207)">
  <path
     fill="none"
     stroke="#000000"
     stroke-width="4"
     stroke-linecap="round"
     stroke-linejoin="round"
     d="m -5.60373,810.088 0.34247,-0.443 0.0437,0.222 -0.1131,-0.251 0.26819,0.419 -0.22284,0.913 -0.01361,-0.389 -0.27466,0.451 -2.63238,6.153 -0.76355,0.93 -8.11869,19.245 -0.1635,1.743 -0.0567,-0.792 -0.2099,0.402 0.281,0.103 8e-4,-0.782 2.1011,-1.394"
     id="path162" />
</g>
<g
   id="g168"
   transform="translate(-534.949,-533.58207)">
  <path
     fill="none"
     stroke="#000000"
     stroke-width="4"
     stroke-linecap="round"
     stroke-linejoin="round"
     d="m -26.4798,847.913 -0.5912,0.342 -1.2375,-0.571 -0.2692,0.385 0.4725,-0.938 0.4023,0.042 0.913,-1.027 9.0801,-5.328 1.292,-0.846 -0.0962,-0.211 0.03,0.379 -0.4651,0.06 -0.5399,0.9 -0.6928,-0.049 -0.7865,0.802 -2.4861,1.354 -1.7197,0.522 -9.6677,6.175 -4.0769,3.321 -0.6685,0.977 0.2543,0.216 1.5016,-1.244 1.3424,-0.625 0.9935,-1.043 3.07,-1.663 1.448,-0.43 6.259,-4.593 7.5351,-4.626 -1.4634,0.907 -0.9142,-0.169 -3.3409,1.34 -11.1543,6.094 -3.1229,2.477 -0.2895,0.746 0.1947,0.297 0.9948,-0.615 0.0447,-0.429 0.612,0.006 0.4367,-0.522 1.0144,-0.04 2.3185,-1.055 3.4172,-2.164 1.2887,-0.402 3.1344,-2.499 5.3686,-3.347 0.628,0.234 1.1929,-1.483 -1.0643,0.712 -4.1836,1.481 -1.1933,0.028 -1.17,0.983 -3.1871,1.557 -2.1761,1.536 -1.5783,1.761 -1.1713,0.431"
     id="path166" />
</g>
<g
   id="g172"
   transform="translate(-534.949,-533.58207)">
  <path
     fill="none"
     stroke="#000000"
     stroke-width="4"
     stroke-linecap="round"
     stroke-linejoin="round"
     d="m 108.08,783.272 0.011,-0.218 1.258,0.46 0.561,0.754 0.212,-0.24 -0.009,-1.18 -0.879,-2.552 0.048,-1.501 1.232,-4.491 1.662,-3.04 0.617,0.446 0.385,-0.255 1.47,1.179 1.19,1.92 0.277,1.471 -0.713,2.927 -1.596,2.276 -0.449,0.277 -0.195,-0.419 -0.187,0.292 0.01,-0.417 -0.279,0.377 -0.38,-1.08 -0.729,-0.78 -0.6,-2.434 -0.021,-1.685 0.829,-1.939 0.955,-0.994 0.669,-0.174 0.853,-0.044 0.775,0.406 0.304,0.579 1.482,1.001 0.324,1.305 -0.682,3.571 -2.217,3.141 -1.902,1.698 -0.215,-0.29 -0.944,0.245 -1.236,-1.02 -1.492,-2.789 -0.475,-2.543 0.904,-2.657 1.551,-0.97 1.783,0.264 2.285,1.425 1.25,2.1 0.281,1.373 -0.132,2.368 -0.447,1.195 -1.292,1.076 -2.637,3.633 -0.605,0.174 -1.452,-1.151 -2.056,-2.611 -0.741,-2.161 -0.031,-1.709 0.547,-0.49 1.741,0.223 0.504,-0.24 2.727,1.47 0.811,1.045 0.347,1.152 -0.238,1.519 -0.328,0.721 -0.253,-0.008 -1.163,2.928 0.23,-1.092 -2.848,-3.807"
     id="path170" />
</g>
<g
   id="g176"
   transform="translate(-534.949,-533.58207)">
  <path
     fill="none"
     stroke="#000000"
     stroke-width="4"
     stroke-linecap="round"
     stroke-linejoin="round"
     d="m -108.856,564.702 -0.395,-0.258 0.328,0.543 -0.725,2.583 -0.408,4.348 0.541,11.726 0.28,0.987 -0.087,6.364 1.175,10.228 0.17,7.403 0.408,2.979 -0.093,3.294 0.279,0.288 0.036,-0.23 0.198,1.022 0.358,4.92 -0.204,2.774 0.451,11.147 -0.212,7.218 0.474,3.372 0.219,7.82 -0.389,0.657 0.083,7.024 -0.15,-0.755 0.016,0.419 -0.164,-0.501 -0.509,-0.248"
     id="path174" />
</g>
<g
   id="g180"
   transform="translate(-534.949,-533.58207)">
  <path
     fill="none"
     stroke="#000000"
     stroke-width="4"
     stroke-linecap="round"
     stroke-linejoin="round"
     d="m -105.137,565.505 -1.571,1.433 -0.198,-0.164 -1.127,2.339 -0.302,-0.049 -0.546,1.033 0.301,-1.14 0.194,0.971 0.49,-0.337 0.358,0.246 0.786,-0.171 0.481,-0.486 1.2,0.396 4.744,-0.053 6.0601,-0.735 1.1406,-0.628 3.3271,0.659 2.1805,-0.678 2.2229,0.115 0.9034,-0.36 2.0544,0.659 0.9736,1.033 0.4474,-0.282 4.7304,0.159 4.0544,-0.599 7.1392,-1.656 0.7981,-0.489 1.6949,0.095 0.6936,-0.326 1.565,-0.041 0.6869,0.62 2.1419,-0.898 2.3324,0.172 0.7019,-0.31 1.4477,0.161 0.6493,0.4 4.5117,-0.844 1.0899,-0.616 5.529,-0.476 0.6346,-0.474 1.4091,0.369 0.6477,0.676 0.2673,-0.298 1.8214,0.064 1.6552,-0.59 6.2497,0.283 2.5797,-0.776 1.0298,0.177 0.7369,0.598 1.1657,-0.318 1.4954,0.259 0.3442,-0.358 1.197,0.766 4.3556,0.127 0.6046,-0.255 2.7491,0.835 0.7044,-0.125 0.331,-0.436 0.7667,0.494 0.87639,0.008 0.31457,0.407 1.01612,-0.58 1.60009,-0.126 1.86951,0.347 0.16846,0.452 0.40747,-0.474 -0.02893,0.765 -0.11255,-0.211 -0.09485,0.415 -0.65356,-0.759 -1.10559,0.823 -0.81617,-0.419"
     id="path178" />
</g>
<g
   id="g184"
   transform="translate(-534.949,-533.58207)">
  <path
     fill="none"
     stroke="#000000"
     stroke-width="4"
     stroke-linecap="round"
     stroke-linejoin="round"
     d="m -2.30988,565.059 -0.79663,-0.289 -0.31652,0.172 0.45361,0.705 0.23462,-0.226 1.13244,8.104 0.33033,16.196 0.871334,5.461 0.293091,4.354 0.27002,8.893 -0.2114262,5.391 0.2918702,1.34 -0.10315,5.537 0.288819,1.369 0.339844,9.566 -0.270874,5.76 0.233398,6.461 -0.453369,0.353 -0.800659,1.912 -1.529538,1.954 -0.38514,0.063"
     id="path182" />
</g>
<g
   id="g188"
   transform="translate(-534.949,-533.58207)">
  <path
     fill="none"
     stroke="#000000"
     stroke-width="4"
     stroke-linecap="round"
     stroke-linejoin="round"
     d="m -105.669,669.178 -0.331,-0.46 -0.047,0.374 -0.754,-0.614 -0.675,0.395 0.622,-0.19 0.417,0.624 1.501,-0.318 1.518,0.33 0.635,-0.27 1.385,0.295 0.792,0.609 5.4225,-0.556 1.1458,-0.545 10.0449,-1.156 3.6126,-0.059 1.1025,-0.436 1.9905,0.296 1.0479,0.51 2.2084,-0.305 1.1977,0.298 4.1676,-1.341 5.789,-1.157 1.0383,0.148 6.4432,-1.577 5.3425,-0.835 1.2777,0.296 4.9615,-1.583 0.9192,-0.652 1.6585,-0.213 0.8653,0.609 1.3496,-0.827 3.0511,-0.773 0.8391,-0.826 1.1698,0.211 3.1066,-0.506 1.5509,0.259 2.0256,-0.466 1.8016,0.18 1.1089,-0.428 0.5601,0.392 2.0839,-1.041 1.1866,0.05 0.529,-0.31 0.9697,0.113 0.4116,0.81 3.1354,-0.934 4.3184,-0.38 0.9427,-0.65 0.66272,0.025 0.31934,0.614 0.64636,-0.498 0.4541,0.144 0.65967,-0.355 0.35925,-0.791 0.1377,0.334 2.02539,0.765 1.82642,-0.35 0.23876,0.498 1.39698,-0.581 0.29809,-0.481 0.650516,0.983 1.14038,-0.937 1.023074,0.875 0.5603,-0.466 0.1405,0.616 -0.00439,-1.014 0.07324,0.67 -1.761962,0.227"
     id="path186" />
</g>
<g
   id="g192"
   transform="translate(-534.949,-533.58207)">
  <path
     fill="none"
     stroke="#000000"
     stroke-width="4"
     stroke-linecap="round"
     stroke-linejoin="round"
     d="m -2.49164,645.503 1.13648,-0.285 0.04651,0.222 -0.11976,-0.457 -0.30285,-0.1 -0.0315,0.318 0.09937,-0.548 0.2395,1.205 -1.03101,2.954 -0.06884,6.269"
     id="path190" />
</g>
<g
   id="g196"
   transform="translate(-534.949,-533.58207)">
  <path
     fill="none"
     stroke="#909090"
     stroke-width="2"
     stroke-linecap="round"
     stroke-linejoin="round"
     d="m -88.4648,577.023 0.7293,-0.241 0.2467,-0.538 -0.1599,-0.558 -0.6081,-0.176 0.3653,-0.025 -0.003,-0.258 0.1228,0.224 -0.0122,7.672 0.9047,9.729 0.0887,8.558 0.7592,11.456 0.7466,4.643 -0.0436,5.351 1.0682,6.233 0.1937,2.93 -0.0497,2.832 -0.6381,3.085 -0.0897,2.234 0.6281,6.582 -0.3234,7.415 0.5702,7.092 -0.5806,3.63 -0.2921,5.466"
     id="path194" />
</g>
<g
   id="g200"
   transform="translate(-534.949,-533.58207)">
  <path
     fill="none"
     stroke="#909090"
     stroke-width="2"
     stroke-linecap="round"
     stroke-linejoin="round"
     d="m -67.864,576.398 0.4581,0.099 0.1704,-0.989 0.1253,0.562 -0.2163,0.928 0.5879,2.652 0.1805,3.869 -0.6326,17.567 0.923,33.913 -0.2137,5.611 1.1306,9.326 0.0023,8.243 0.3916,2.049 0.4079,0.638 0.2487,3.342 0.5266,1.172 0.2575,2.634 0.2233,-0.122 -0.2886,-0.988"
     id="path198" />
</g>
<g
   id="g204"
   transform="translate(-534.949,-533.58207)">
  <path
     fill="none"
     stroke="#909090"
     stroke-width="2"
     stroke-linecap="round"
     stroke-linejoin="round"
     d="m -47.8805,571.465 0.137,-0.541 0.081,0.506 -0.273,-0.696 0.105,1.807 -1.1049,8.913 -0.6786,12.168 -0.2243,12.586 0.7413,28.324 1.2257,11.637 0.4891,9.597 0.7075,4.12 0.1514,5.774"
     id="path202" />
</g>
<g
   id="g208"
   transform="translate(-534.949,-533.58207)">
  <path
     fill="none"
     stroke="#909090"
     stroke-width="2"
     stroke-linecap="round"
     stroke-linejoin="round"
     d="m -34.5358,573.284 -0.1751,2.792 0.4004,7.852 0.0914,18.743 -0.6261,22.181 0.9643,8.623 1.0114,16.022 0.0716,5.7 0.8376,5.318 0.0293,2.675 0.3006,0.704 -0.1952,0.802"
     id="path206" />
</g>
<g
   id="g212"
   transform="translate(-534.949,-533.58207)">
  <path
     fill="none"
     stroke="#909090"
     stroke-width="2"
     stroke-linecap="round"
     stroke-linejoin="round"
     d="m -20.1213,572.911 0.1314,0.325 0.1648,-0.174 0.4043,2.483 0.0943,51.559 0.3913,7.992 0.8231,4.654 0.9112,8.569 0.4621,8.637 -0.2849,5.721 0.0311,1.32 0.1623,0.551 0.0494,-0.508 -0.2278,-0.994"
     id="path210" />
</g>
<g
   id="g216"
   transform="translate(-534.949,-533.58207)">
  <path
     fill="none"
     stroke="#909090"
     stroke-width="2"
     stroke-linecap="round"
     stroke-linejoin="round"
     d="m -107.805,593.451 0.839,0.445 0.075,-0.4 0.371,0.655 0.954,0.337 0.954,-0.097 0.586,-0.53 0.221,0.253 3.443,-0.056 0.8161,0.255 9.224,-1.61 2.9045,-0.023 1.1696,0.272 6.3145,-0.797 1.189,-0.398 3.7568,0.369 2.6976,-0.595 2.9797,-0.093 1.0009,-0.393 2.9278,0.006 8.6158,-1.277 1.2431,0.271 2.3927,-0.09 0.803,0.35 2.9764,-0.811 5.8182,-0.214 1.0263,0.448 2.4733,-0.664 4.9058,-0.167 0.8913,-0.283 3.2498,0.605 5.182,-0.09 1.0619,-0.309 2.6204,0.338 4.4625,-0.455 0.7559,-0.496 2.6565,0.318 7.38484,-0.718 1.16468,0.131 0.36609,-0.243 0.69384,0.712 0.17139,-0.611 -0.22375,0.171 -0.05323,-0.324 -0.12976,0.782 0.13635,-0.3 4.357061,-0.05"
     id="path214" />
</g>
<g
   id="g220"
   transform="translate(-534.949,-533.58207)">
  <path
     fill="none"
     stroke="#909090"
     stroke-width="2"
     stroke-linecap="round"
     stroke-linejoin="round"
     d="m -111.107,608.361 0.363,0.451 0.351,-0.34 0.078,0.353 0.001,-0.611 0.204,0.609 1.773,0.286 6.559,-0.508 4.7714,-1.218 4.37,-0.185 3.0103,-0.765 1.523,0.169 5.9239,-1.456 8.62,-1.232 1.3285,0.157 12.4506,-2.337 1.4568,-0.067 0.997,0.298 5.6473,-0.711 0.8674,-0.48 2.4418,0.634 4.2858,-0.333 0.8539,-0.404 0.388,0.21 5.5514,-0.313 8.2961,0.238 1.3722,-0.225 0.6889,0.406 2.3446,-0.817 2.6842,-0.361 1.5127,-0.183 0.7399,0.343 4.5281,-0.939 6.20617,-0.27 0.95337,-0.2 0.35669,-0.6 0.69751,0.422 0.51428,-0.26 0.13989,-0.555 0.35987,0.306 2.90966,-0.174 0.95557,-0.341 -0.07214,0.329"
     id="path218" />
</g>
<g
   id="g224"
   transform="translate(-534.949,-533.58207)">
  <path
     fill="none"
     stroke="#909090"
     stroke-width="2"
     stroke-linecap="round"
     stroke-linejoin="round"
     d="m -108.224,623.879 -0.186,0.379 0.326,0.077 1.464,-0.399 3.182,0.375 2.248,-1.018 2.0749,0.067 1.0674,-0.612 3.8376,-0.216 8.6942,-2.222 1.842,-0.795 8.6539,-1.709 7.5373,-0.583 7.8527,-1.25 1.3531,0.232 1.4041,-0.278 3.6882,0.007 2.6916,-0.474 1.2197,-0.742 0.5756,0.276 2.1827,0.07 3.1934,-0.191 1.0555,-0.554 1.9256,0.201 10.4681,-0.551 5.3245,-1.186 0.7894,-0.648 2.3416,0.361 3.2647,-0.85 0.6347,-0.589 1.8731,-0.323 4.0308,-0.339 3.89638,-0.834 0.77356,0.206 1.40649,-0.273 0.86267,0.372 1.73669,-0.675 3.540654,0.214 2.004756,-0.419 2.94642,0.119 -0.93531,-0.44 -0.48486,0.11"
     id="path222" />
</g>
<g
   id="g228"
   transform="translate(-534.949,-533.58207)">
  <path
     fill="none"
     stroke="#909090"
     stroke-width="2"
     stroke-linecap="round"
     stroke-linejoin="round"
     d="m -104.047,640.672 -0.178,0.584 0.274,0.493 0.206,-0.35 0.999,-0.317 5.0235,-0.315 4.2143,-1.13 11.8895,-1.606 2.5627,0.086 8.0457,-1.969 14.3388,-2.241 15.7383,-1.738 3.1518,-0.864 12.1109,-2.025 1.2303,-1.029 0.4689,0.222 5.4452,-0.61 13.79057,-2.557 1.04724,0.216 0.45861,0.638 1.02369,-0.57 0.01709,0.303 -0.55042,-0.037 0.03296,-0.243"
     id="path226" />
</g>
<g
   id="g232"
   transform="translate(-534.949,-533.58207)">
  <path
     fill="none"
     stroke="#909090"
     stroke-width="2"
     stroke-linecap="round"
     stroke-linejoin="round"
     d="m -100.069,655.287 -0.178,-1.741 0.5409,0.728 0.0741,-0.424 0.0721,0.198 1.3652,-0.513 9.4417,-1.16 8.6083,-0.17 1.6886,0.38 4.8978,-0.853 6.4043,-0.207 5.4371,-0.611 9.8618,-1.936 9.6771,-0.478 4.0769,-0.712 1.0592,-0.472 3.579,0.074 3.2098,-0.502 2.3794,-0.019 11.3105,-2.174 4.015,0.55 1.6607,0.69 1.65746,-0.128 0.70044,-0.349 2.03699,0.612 1.02197,-0.054 0.48974,0.45 0.75806,-0.265 3.397828,0.219 -0.134033,-0.49 -0.280645,0.335 -0.82812,-0.773 -1.40637,-0.104"
     id="path230" />
</g>
<g
   id="g236"
   transform="translate(-534.949,-533.58207)">
  <path
     fill="none"
     stroke="#909090"
     stroke-width="4"
     stroke-linecap="round"
     stroke-linejoin="round"
     d="m -107.221,625.956 -0.186,0.866 0.244,-0.179 0.052,0.207 0.677,-1.066 1.185,-0.923 0.231,0.259 0.746,-0.89 0.497,0.174 1.328,-0.27 1.277,-0.893 1.2768,-0.155 0.5875,0.278 1.1819,-0.56 0.7951,0.121 1.6111,-0.901 1.1452,0.552 1.2049,-0.14 0.5323,0.335 6.5149,-1.964 1.4723,-0.301 0.9745,0.344 2.7477,-0.715 0.4511,-0.427 1.0338,-0.03 0.5525,0.715 0.2519,-0.442 1.4761,-0.674 1.506,0.004 0.4485,-0.374 1.1324,0.422 3.4069,-0.032 1.365,-0.206 0.5737,-0.411 2.4787,0.129 0.4435,0.314 1.5975,-0.567 2.1136,-0.06 0.3257,0.699 0.9096,-0.767 1.1957,-0.198 2.0594,0.002 0.3831,0.321 0.8148,-0.308 0.1797,0.259 2.3438,-0.576 0.5212,0.562 1.5094,-0.473 0.9274,0.121 0.5951,-0.699 1.0101,0.696 4.7088,-0.576 1.2762,0.333 0.7317,-0.241 0.354,0.315 1.1923,-0.716 2.001,-0.056 0.4505,0.425 1.6016,-0.614 1.9971,-0.156 4.1258,0.243 0.4683,0.332 2.2463,-0.432 0.3466,0.567 0.4609,-0.346 1.7799,-0.267 0.7776,-0.86 1.0756,0.518 1.374,-0.257 0.502,0.216 0.5671,-0.313 1.5461,0.43 0.3615,-0.213 0.0791,0.33 1.3219,-0.549 1.0306,0.029 0.4278,-0.571 0.8412,0.742 1.7266,-0.591 2.8292,0.362 1.0458,-0.462 0.56919,-0.03 0.34937,0.433 0.60156,-0.334 0.40186,0.206 0.75756,-1.197 0.62879,0.572 0.26794,-0.413 0.84571,0.182 0.19653,-0.413 0.83606,0.195 -0.05982,0.275 0.15943,-0.392 0.75293,-0.333 0.18261,-0.675 0.14563,0.811 0.50977,-0.808 0.01904,0.635 1.82495,-0.726 -0.00622,0.467 0.06872,-1.031 -0.24047,0.852 0.00512,-0.734 0.19947,0.738 0.369014,-1.193 0.576904,0.594 0.022461,-0.617 0.090332,0.722 -0.527954,-0.249 -0.999997,0.573"
     id="path234" />
</g>
<g
   id="g240"
   transform="translate(-534.949,-533.58207)">
  <path
     fill="none"
     stroke="#0062cc"
     stroke-width="4"
     stroke-linecap="round"
     stroke-linejoin="round"
     d="m -107.096,623.986 -0.254,-0.115 -0.283,0.496 -0.311,-0.416 0.193,0.32 0.38,-0.474 0.059,0.362 -0.331,-0.028 0.186,-0.577 0.11,0.828 0.27,-0.833 0.253,0.463 0.503,-2.263 0.222,-0.489 0.258,0.085 0.687,-1.897 0.951,-1.166 0.12,-0.821 0.984,-1.055 0.144,0.239 0.477,-1.801 0.061,0.208 0.292,-0.239 0.086,0.433 0.527,-1.273 0.644,-0.659 0.195,0.312 1.0996,-0.901 0.4852,-0.043 0.2642,0.366 1.5431,-1.006 2.9257,-1.069 0.8882,0.025 0.1817,0.43 0.6728,-0.845 1.1726,1.16 0.7342,-0.427 0.807,0.127 0.2928,0.444 0.4368,-0.031 0.294,0.858 0.9922,0.041 2.3578,3.357 0.1421,-0.237 0.4876,0.493 0.1339,1.356 0.2037,-0.233 0.7651,2.423 0.3447,0.451 0.1254,-0.205 1.3472,8.227 0.2577,-0.16 0.6764,2.569 0.8193,1.35 0.5283,0.033 0.6477,1.763 0.2967,-0.304 0.4568,0.986 1.5244,0.795 0.0804,0.672 0.383,-0.751 0.3557,-0.066 0.5008,0.408 0.1487,0.739 0.0679,-0.256 0.4242,0.181 0.2982,-0.258 1.0466,0.184 0.92,-0.675 0.8555,0.103 0.409,-0.36 0.0861,0.307 0.569,-1.071 0.4438,0.015 0.6974,-0.621 0.2184,0.147 2.0664,-2.847 0.3858,-0.335 0.159,0.206 0.8044,-3.027 0.2176,0.632 2.3164,-7.941 0.0433,-1.534 0.9757,-4.668 0.0474,-2.644 1.8673,-10.402 1.0679,-1.758 0.2233,-1.099 0.1935,0.118 0.4357,-0.942 0.0972,0.488 0.9237,-1.669 0.5647,0.247 0.5797,-0.649 h 0.6048 l 0.2247,0.138 -0.2299,0.142 0.1268,0.699 -0.1774,-0.421 0.8263,-0.102 0.5856,0.869 0.9669,0.677 0.2317,-0.299 1.756,3.486 0.1343,3.322 0.8115,2.503 0.1218,2.523 -0.6602,6.425 -0.0312,6.446 0.3573,0.524 0.4003,3.005 0.9764,1.952 0.0134,0.895 0.6769,0.807 0.0935,-0.336 0.3321,1.588 2.1762,2.743 0.6416,0.133 0.3732,-0.263 0.2907,0.875 2.2039,-0.336 0.3447,0.45 0.2226,-0.265 0.0283,0.361 0.6196,-1.438 0.303,0.556 0.7965,-0.603 0.5588,0.091 0.2539,-0.51 0.5827,0.305 1.4724,-1.604 1.9506,-3.428 1.269,-1.149 2.1573,-4.923 1.1364,-1.684 0.5256,-1.701 0.6945,-6.19 1.5027,-2.124 0.6345,-1.704 0.2002,0.438 0.3492,-1.535 1.8611,-2.499 0.2342,0.321 0.7612,-0.497 0.155,-0.747 0.6025,0.432 0.8067,-0.452 0.6514,0.024 0.3298,-0.565 1.6925,0.445 0.4388,-0.253 0.4102,1.012 1.1537,-0.472 0.4295,0.34 -0.1166,0.553 0.4194,0.236 0.0452,0.693 0.6366,0.508 0.1474,-0.469 1.2171,6.698 -0.6494,8.931 0.6189,1.137 -0.0896,1.101 0.2221,0.486 0.186,-0.26 0.1257,2.443 0.1427,-0.389 0.1931,0.434 0.2529,-0.056 0.0546,1.086 0.8099,0.356 0.2069,-0.558 0.488,1.337 0.7167,0.579 0.0996,-0.386 0.2548,0.605 0.4411,-0.276 0.3755,0.152 0.2361,1.016 0.165,-1.003 0.22086,1.243 0.00781,-0.536 0.80444,-0.235 0.13697,0.644 0.66516,-0.924 0.35266,0.866 1.65491,-1.271 0.40637,-0.132 0.24341,0.557 0.69043,-1.563 0.61462,0.33 0.06165,0.604 0.32336,-1.211 0.80469,-0.595 0.00866,-0.327 -0.05798,0.63 0.03577,-0.889 -0.04126,1.097 0.01245,-0.849 -0.21948,0.241 -0.97962,-1.062 -1.29748,-0.303"
     id="path238" />
</g>
<g
   id="g244"
   transform="translate(-534.949,-533.58207)">
  <path
     fill="none"
     stroke="#000000"
     stroke-width="4"
     stroke-linecap="round"
     stroke-linejoin="round"
     d="m 34.301,594.003 0.4338,2.445 -0.2805,-1.332 -0.284,0.352 -0.2666,-0.989 -0.0772,0.394 -0.1171,-1.621 -0.2424,0.253 -0.8644,-0.166 -0.9309,-1.08 -0.088,0.476 -0.2999,-0.536 -0.6647,-0.036 -0.2451,-0.571 -0.6628,0.936 -1.1353,0.272 -0.256,-0.293 -0.2055,0.4 -1.8813,1.001 -0.6631,0.967 -0.2393,-0.106 -0.9305,1.601 -0.1418,0.848 -0.4219,0.055 -0.0283,-0.564 -0.5827,2.462 -0.2462,2.49 0.1764,1.573 1.7859,3.305 0.2602,-0.486 0.6043,1.594 0.9392,1.287 0.2577,-0.275 0.477,0.983 1.6191,0.775 0.3106,0.671 1.1912,-0.727 1.3436,0.66 0.3939,0.654 0.66,-0.326 0.1682,-0.578 0.1688,0.264 0.0897,-0.354 0.6692,0.323 1.8385,-1.552 0.248,0.367 1.1795,-1.871 0.3458,-1.157 0.0728,0.223 0.4376,-0.163 1.1993,-5.809 0.0188,-1.849 -0.3883,-0.5 -0.2245,0.335 -1.0669,-1.302 -1.096,-0.475 -1.3179,-1.109 -0.1527,-1.054 -0.4375,0.401 -1.0088,-0.459 -0.111,-1.283 -0.4112,0.799 -1.0101,0.306 -0.707,-0.455 -0.9259,0.207 -0.4796,0.951"
     id="path242" />
</g>
<g
   id="g248"
   transform="translate(-534.949,-533.58207)">
  <path
     fill="none"
     stroke="#000000"
     stroke-width="4"
     stroke-linecap="round"
     stroke-linejoin="round"
     d="m 32.5987,630.281 -0.3933,0.156 -0.104,-0.231 0.3358,-0.576 -0.2379,-1.028 -0.1587,0.472 -0.7445,-0.849 -0.6419,0.478 -1.2872,-0.073 -0.7909,0.337 -1.2955,1.034 -0.6542,1.028 -0.2189,-0.524 -0.9142,1.772 0.0837,0.73 -0.48,1.042 -0.1973,1.672 0.241,2.379 0.4951,0.89 2.395,2.137 0.9859,-0.461 0.6261,0.3 0.9991,-0.536 0.6357,-0.833 1.271,0.063 2.5417,-0.855 1.8895,-2.1 0.2944,0.004 1.1497,-4.388 -0.3378,-2.781 -1.2702,-1.264 -0.8366,-0.316 -0.1686,-0.451 -0.8534,0.66 -0.5622,-0.216 -0.2234,0.574 -0.3346,-0.141 0.1013,-0.448"
     id="path246" />
</g>
<g
   id="g252"
   transform="translate(-534.949,-533.58207)">
  <path
     fill="none"
     stroke="#000000"
     stroke-width="4"
     stroke-linecap="round"
     stroke-linejoin="round"
     d="m 65.2274,594.176 0.2005,1.383 0.6836,-1.358 0.0769,0.375 -0.0212,-0.636 -1.2063,-1.127 -0.2617,0.115 -0.2968,-0.84 -0.5244,0.805 -0.4584,-0.48 -0.7065,0.077 -0.3251,-0.566 -1.3236,1.17 -0.6273,0.003 -1.8111,1.028 -0.9672,1.774 -0.19,-0.196 -0.2386,0.665 -0.3758,0.165 -0.8711,2.026 -0.6966,2.418 -0.2268,2.576 0.259,1.624 1.3971,1.397 0.3022,1.385 0.3796,-0.233 1.2098,1.093 0.3254,-0.438 0.4855,0.751 1.3189,0.611 0.3617,-0.161 0.9155,0.634 1.2541,-0.581 0.9718,-0.134 0.5109,0.289 1.0092,-0.731 0.8414,-0.113 1.6686,-1.754 1.2513,-0.246 0.3793,-0.689 0.8215,-0.234 0.5841,-1.551 -0.0462,-1.459 -0.6089,-1.15 -0.6962,-3.717 -0.1506,0.213 -0.9422,-3.092 -0.0121,-1.124 -0.3497,0.508 -0.4742,-0.029 -0.2845,-0.469 -2.6015,0.371 -2.0022,1.024 -0.2485,0.503 -0.3249,-0.5 0.5344,-0.027"
     id="path250" />
</g>
<g
   id="g256"
   transform="translate(-534.949,-533.58207)">
  <path
     fill="none"
     stroke="#000000"
     stroke-width="4"
     stroke-linecap="round"
     stroke-linejoin="round"
     d="m 65.0911,629.928 1.334,-2.58 0.1348,-1.027 -0.4292,-0.103 -0.2196,-1.033 -0.5113,0.485 -0.9076,-0.22 -1.0185,0.657 -0.5169,-0.288 -0.2607,0.173 -1.1299,1.563 -1.9593,1.397 -1.8937,2.329 -0.9749,2.272 -0.0883,2.066 0.3636,3.162 0.6384,1.513 0.524,0.067 1.3077,1.237 1.8772,0.916 2.2664,0.382 1.6571,-0.228 2.3217,-1.207 2.9323,-2.118 1.5299,-1.707 0.4097,-1.014 -0.0978,-3.832 -0.5238,-0.874 -1.4292,-1.568 -1.1538,-0.507 -0.3046,-0.772 -1.0641,0.13 -0.7475,-0.522 -0.2831,0.114 -1.1771,-1.136"
     id="path254" />
</g>
<g
   id="g260"
   transform="translate(-534.949,-533.58207)">
  <path
     fill="none"
     stroke="#000000"
     stroke-width="4"
     stroke-linecap="round"
     stroke-linejoin="round"
     d="m 19.2905,565.91 0.2592,0.694 -0.0255,-0.969 0.0959,0.768 -0.1208,-0.61 -0.628,0.457 -0.6201,-0.713 -1.0127,1.213 -0.4711,0.208 -0.1019,-0.633 -0.8846,1.828 -0.7108,0.734 -0.2951,1.06 0.611,3.031 -0.8466,3.03 0.2955,0.937 0.3187,-0.848 0.5095,1.593 1.2684,0.596 0.8015,-0.676 0.4861,0.125 0.4812,-0.33 1.0091,0.612 0.7236,-0.501 0.3582,0.155 0.1224,-0.458 0.111,0.328 0.859,0.204 0.5967,-0.818 0.5918,0.11 1.5077,-0.458 0.2304,-1.062 0.4747,1.228 0.3043,-0.446 1.4851,-0.362 0.9085,-0.71 0.6651,0.221 0.019,0.702 0.3535,-0.898 0.4333,0.416 0.5246,0.017 0.3617,-0.358 1.4666,0.281 0.301,-0.824 0.21,0.639 0.4817,0.272 0.0029,-0.513 0.6576,0.547 0.4303,-0.334 0.5324,0.157 0.2875,-0.381 0.3604,0.216 0.2335,-0.661 0.1444,0.261 0.6912,-0.107 1.1346,-0.951 0.2988,-1.012 -0.2755,-1.88 -0.0797,-0.201 -0.0836,0.335 -0.3406,-1.262 0.0166,-0.975 0.0209,0.303 0.1531,-0.163 -0.0431,0.332 -0.3681,-0.64 0.2144,0.514 -0.1987,-1.714 0.2046,-0.954 -0.2883,-0.792 -0.2675,0.331 -0.2441,-0.805 -0.2983,0.364 -0.3025,-0.313 -0.2316,0.201 -0.5102,-0.837 -0.4812,-0.026 -0.103,-0.434 -0.4234,0.563 -1.3633,-0.437 -0.4564,0.154 -0.2003,0.733 -0.7655,-0.873 -1.7157,-0.064 -0.7656,-0.502 -1.0923,0.501 -0.2653,0.54 -0.5809,-0.769 -0.741,0.457 -1.3686,-0.428 -0.485,0.484 -0.2262,-0.633 -0.4711,0.069 -0.2302,0.534 -0.4285,-0.247 -0.3319,0.736 -0.4409,-0.671 -0.8233,-0.144 -1.5724,0.573 -0.2951,-0.247 -1.1037,0.449 -0.2853,0.513 -0.5501,-0.449 0.355,-0.007 -0.0315,-0.418 0.5945,-0.31"
     id="path258" />
</g>
<g
   id="g264"
   transform="translate(-534.949,-533.58207)">
  <path
     fill="none"
     stroke="#000000"
     stroke-width="4"
     stroke-linecap="round"
     stroke-linejoin="round"
     d="m 50.5861,566.273 -0.0688,-0.312 0.4234,0.135 0.1161,0.397 -0.0416,-0.609 0.0554,0.937 -0.1294,-0.431 -1.2871,3.987 -0.095,1.963 -0.0295,-0.716 -0.1639,0.301 -0.4369,1.966 0.8651,1.402 0.4198,-0.287 0.5212,0.942 1.1164,-0.27 0.2428,-0.586 0.4398,0.341 2.4887,-0.222 0.8742,0.525 0.4192,-0.278 0.4557,0.339 0.839,-1.113 0.493,0.541 0.5167,-0.296 0.9319,0.431 2.4594,0.381 1.5588,-0.307 0.373,-0.517 0.5414,0.236 0.3079,0.629 1.1688,-0.873 0.3024,-0.594 0.8497,0.59 0.4824,-0.572 0.4356,0.345 0.3257,-0.298 0.1283,0.199 0.6491,-1.113 0.5037,0.256 1.4861,-1.212 -0.013,-4.166 -0.4174,-2.361 -0.1343,0.175 -0.2755,-0.603 -0.2652,-1.647 -0.3132,0.25 -1.193,-1.209 -0.8267,0.364 -0.7282,-0.119 -0.5329,-0.263 -0.117,-0.529 -0.3308,0.29 -0.7652,-0.08 -0.2892,-0.357 -0.3842,0.228 -0.1255,-0.55 -0.7996,0.572 -0.6158,-0.322 -0.8971,0.366 -0.2256,-0.298 -1.6915,0.635 -0.7222,-0.302 -0.5421,0.413 -0.6249,-0.022 -0.2127,-0.443 -1.1474,1.012 -0.4905,-0.106 -0.154,-0.511 -2.6097,1.4 -1.0824,0.032 -0.0954,-0.317 -0.1459,0.485 -0.3225,-0.436 -0.3295,0.171 -0.0395,-0.544 0.0781,0.701 -0.3452,0.043 -0.0232,-0.268 -0.2709,0.322 0.3559,-0.752"
     id="path262" />
</g>
<g
   id="g268"
   transform="translate(-534.949,-533.58207)">
  <path
     fill="none"
     stroke="#000000"
     stroke-width="4"
     stroke-linecap="round"
     stroke-linejoin="round"
     d="m 85.887,564.151 0.1022,0.665 0.1835,-0.876 0.154,0.552 -0.1996,-0.191 -0.0781,0.379 0.1882,0.339 -0.4742,2.324 -0.4176,0.497 -0.1952,2.679 -0.8417,1.519 -0.9093,4.118 -0.2629,0.054 0.2508,1.668 0.1227,-0.201 0.8697,1.393 0.2508,3.355 0.6183,0.548 0.0063,0.586 0.0066,-0.23 0.1824,0.392 0.1475,-0.307 0.1931,0.141 0.0494,0.87 0.0943,-0.421 0.0022,0.368 0.9127,0.01 0.0295,-0.222 0.4514,0.884 0.3195,-0.138 0.7034,0.649 0.6947,-0.471 1.7303,0.268 0.8314,0.518 0.3682,-0.232 0.2327,0.304 0.3593,-0.377 0.2608,0.175 1.6137,-0.469 0.298,-0.477 0.8549,0.462 0.8557,-0.26 2.3988,-1.527 0.4452,0.112 0.0738,0.372 0.5375,-0.435 1.2991,0.168 0.821,-1.139 1.774,0.364 2.222,-0.672 0.227,0.43 1.046,-0.444 0.034,-0.767 0.383,0.725 0.477,-0.547 -0.047,-0.536 0.224,0.274 0.049,-0.375 0.74,-0.262 0.118,0.262 0.247,-0.967 0.129,0.169 0.239,-0.354 0.093,0.339 0.242,-1.11 0.046,0.25 0.869,-0.929 0.742,-3.276 -0.438,-1.947 -0.658,-0.762 -0.221,0.187 -0.036,-0.548 -0.123,0.218 -0.049,-1.445 -1.115,-0.627 -0.379,-0.732 -0.05,-2.599 -0.141,0.399 0.071,-0.446 -0.67,-0.863 0.435,-2.162 -0.181,-2.169 -0.222,0.256 -0.027,-0.83 -0.42,-0.519 -0.911,-0.034 -0.056,-0.663 -0.16,0.247 -0.834,-0.318 -0.05,0.381 -0.454,-0.855 -2.393,0.845 -0.468,-0.533 -0.353,0.241 -0.186,-0.656 -0.439,0.59 -0.488,0.062 -0.265,-0.343 -0.7617,0.261 -0.3053,-0.661 -0.2488,0.433 -0.64,0.222 -0.1472,0.466 -0.3151,-0.402 -0.1579,0.26 -2.2642,-0.074 -0.4751,-0.685 -0.7965,0.516 -0.489,-0.053 -0.0834,0.442 -0.0976,-0.99 -0.7742,0.592 -1.5554,-0.022 -0.1426,-0.422 -0.3359,0.712 0.0141,-0.794 -0.1072,-0.203 -0.2716,0.623 -0.0029,-0.605 -0.6393,1.291 -2.2948,0.808 -0.4835,0.671 -0.1464,-0.465 0.0407,0.821 -0.0773,-0.791 -1.1731,1.241 -0.1701,0.711 0.4339,-0.843 0.1193,0.472 -0.1951,1.864 1.4359,0.189"
     id="path266" />
</g>
<g
   id="g272"
   transform="translate(-534.949,-533.58207)">
  <path
     fill="none"
     stroke="#000000"
     stroke-width="4"
     stroke-linecap="round"
     stroke-linejoin="round"
     d="m 108.28,615.504 0.438,0.243 0.143,-0.385 0.073,0.412 0.01,-0.373 -0.024,0.481 -0.196,-0.757 -0.139,0.384 -0.163,-0.637 -0.371,-0.205 -0.101,0.378 0.038,-0.647 0.131,0.358 -0.469,0.23 0.02,0.577 -0.044,-0.457 -0.115,0.306 -0.649,-0.331 -0.47,0.803 -0.531,0.218 -0.321,-0.238 -0.506,0.865 -0.404,0.078 -0.434,1.385 -1.476,1.903 -0.543,2.575 -0.13,3.2 0.763,2.066 0.896,1.014 0.299,-0.313 1.149,1.264 0.376,-0.551 0.337,0.744 0.095,-0.415 0.707,1.335 3.875,-0.403 0.774,-0.869 0.437,0.564 1.265,-0.922 0.291,-0.71 0.315,0.113 1.637,-0.994 1.039,-1.814 0.591,-0.281 0.323,-1.79 0.109,0.225 0.162,-0.517 0.059,0.323 0.045,-2.706 -0.355,-0.419 0.442,-0.779 -0.144,-1.316 -0.342,-0.739 -0.132,0.167 -0.496,-0.411 -0.216,-1.243 -0.27,0.347 -0.616,-0.319 -1.201,-1.939 -0.387,-0.023 -0.387,-0.835 -0.423,0.186 -0.191,-0.56 -0.869,0.905 -0.352,-0.853 -0.615,0.093 -0.122,-0.258 -1.025,0.17 -2.306,-0.358 -3.649,0.337 -0.37,0.291 -0.457,-0.26 -0.068,-0.765"
     id="path270" />
</g>
<g
   id="g276"
   transform="translate(-534.949,-533.58207)">
  <path
     fill="none"
     stroke="#000000"
     stroke-width="4"
     stroke-linecap="round"
     stroke-linejoin="round"
     d="m -135.464,551.143 -0.04,0.539 0.051,-0.737 0.244,0.365 -0.104,0.512 -0.677,1.853 -0.904,1.215 -0.509,1.349 -0.169,2.313 0.581,21.265 -0.932,14.018 0.605,11.65 -1.087,21.807 1.066,10.422 0.197,8.333 -0.769,9.424 -0.082,5.262 -0.722,5.324 0.238,7.487 -0.83,12.404 -0.006,3.389 0.446,3.274 2.581,6.475 0.164,-1.117 1.185,1.349 0.438,0.185 0.319,-0.397 0.303,0.497 2.197,0.689 0.567,0.624 0.724,-0.419 0.27,-0.554 0.504,0.211 1.685,-0.272 0.513,0.301 1.158,-0.324 0.463,-0.777 0.678,0.227 0.379,-0.431 1.047,0.1 0.597,0.393 5.137,-2.519 0.531,0.448 1.372,-0.978 0.622,0.134 1.513,-1.153 0.375,0.243 1.778,-0.087 0.234,-0.27 1.425,0.145 0.377,-1.116 0.172,0.421 0.439,0.082 4.422,-0.204 1.874,-1.023 2.35,-0.731 1.235,-0.147 0.6742,0.352 1.6369,-0.747 0.7305,-0.694 1.1466,0.047 0.6388,-0.502 1.2556,0.204 0.5526,0.611 1.4377,-0.945 0.996,0.065 7.8553,-1.603 2.4404,-1.304 2.3376,0.071 3.054,-0.49 0.6495,-1.033 0.704,0.503 3.21,-0.15 3.3331,-0.997 3.742,-0.301 0.6637,-0.685 0.8863,0.333 0.4897,-0.502 1.5919,1.025 1.5607,-0.831 1.6311,0.087 3.2648,-0.482 5.5071,-1.518 0.6284,-0.422 1.6259,-0.005 1.3821,-0.718 1.8308,-0.134 0.6332,-0.714 0.2122,0.282 2.2915,0.146 2.3706,-0.732 6.6042,-0.289 0.5542,-0.616 0.2153,0.333 2.7283,0.358 0.6135,0.469 2.0141,-0.689 2.1491,0.191 1.5386,-0.487 0.5245,0.243 3.3619,-0.603 3.2403,0.137 1.3363,-0.25 0.6614,-0.495 1.82729,0.038 0.99548,-0.81 0.33887,0.356 1.46008,-0.026 0.80896,0.485 4.989381,-0.543 0.981201,-0.355 3.296998,0.451 2.82239,-0.298 4.91165,0.375 2.3134,-0.284 5.1028,0.332 3.0172,-0.336 1.4891,0.317 3.3006,-0.662 1.7835,-0.767 4.0349,0.12 1.4333,0.332 3.377,-0.292 1.301,0.373 6.0853,-0.343 9.762,0.382 1.5952,-0.346 2.7272,0.035 1.2464,-0.519 0.5391,0.272 2.2906,0.016 0.8666,0.641 2.0526,-0.935 1.0999,0.143 0.5867,-0.335 0.6705,0.186 0.3657,0.537 5.8504,-2.244 0.3005,0.272 1.2335,-0.127 0.7803,-0.326 0.441,-0.617 1.2963,0.122 0.6438,0.526 0.2726,-0.413 1.4852,-0.277 1.3889,-0.905 7.3615,-1.704 2.3801,-1.237 4.7051,-0.635 0.4977,0.54 1.4672,-0.989 0.5171,0.133 1.1934,-0.446 0.905,0.007 0.462,0.515 1.383,-0.754 3.371,-0.866 1.812,-0.087 2.704,-1.157 0.9,0.07 0.442,0.59 0.851,-0.758 0.475,0.109 2.203,-0.683 0.629,0.209 2.36,-0.897 2.819,-0.334 0.392,-0.312 2.758,-0.054 0.437,0.456 1.25,-1.02 1.631,-0.04 0.387,0.598 0.515,-0.867 0.603,0.454 0.674,-0.055 -0.125,-0.426 -0.052,0.931 0.045,-0.972 0.099,0.495 2.009,-2.14"
     id="path274" />
</g>
<g
   id="g280"
   transform="translate(-534.949,-533.58207)">
  <path
     fill="none"
     stroke="#000000"
     stroke-width="4"
     stroke-linecap="round"
     stroke-linejoin="round"
     d="m -137.674,552.951 -0.287,-0.744 0.255,-0.915 1.1,-0.99 1.057,-1.757 4.212,-3.547 4.095,-1.779 5.976,-1.521 3.694,-0.574 1.218,-0.523 3.997,0.596 3.276,-0.629 5.534,-0.449 1.56,-0.498 9.265,-0.069 10.1117,-0.773 7.755,0.059 1.3261,0.534 3.4357,-0.374 7.3909,0.009 1.4028,0.301 16.0477,-1.335 4.5211,0.673 5.253,0.259 2.0451,-0.008 1.3418,-0.348 2.4205,0.681 1.1619,0.7 7.766,0.121 3.9015,0.537 8.33272,0.489 3.82495,-0.303 3.04992,0.042 1.220341,0.37 2.406859,-0.213 2.00342,0.621 1.11584,-0.337 2.66199,-0.012 4.56666,0.775 0.8768,0.43 9.0735,0.329 11.176,-0.49 0.9068,-0.546 1.807,0.184 0.98,0.543 2.8368,-0.997 1.9781,-0.34 2.9807,0.288 11.0425,-1.425 1.9717,-0.618 1.5154,0.051 4.4613,-0.886 1.1029,0.284 4.5926,-1.497 6.3096,-0.111 3.6578,-0.677 1.1765,-0.021 0.5927,0.362 1.7584,-0.402 0.5637,-0.551 3.043,0.113 0.9408,0.34 1.3326,-0.175 0.5579,-0.626 0.464,0.334 3.2862,0.419 6.035,0.072 0.7012,0.492 1.348,-0.425 1.142,0.202 0.462,-0.327 1.386,0.626 5.279,-0.288 4.076,0.262 1.433,-0.169 0.306,-0.413 0.984,0.678 1.896,0.061 0.964,-0.15 0.343,-0.82 0.41,0.504 1.517,0.633 1.01,-0.125 0.558,0.207 0.134,0.457 0.951,-0.264 0.784,0.681 0.353,-0.229 0.79,1.257 1.459,1.153 2.397,3.395 0.635,2.154 0.88,1.873 0.234,-0.046 0.115,1.265 1.543,4.259 1.575,17.016 -0.004,8.073 0.999,5.931 0.05,3.71 0.565,3.456 -0.808,10.16 2.465,12.719 0.265,6.596 -0.184,3.252 0.293,0.956 0.319,8.517 -0.385,3.853 -0.36,1.27 -0.073,-0.555 -0.6,3.528 -0.346,6.382 -1.183,4.992 -0.235,3.483 -0.188,0.363 -0.06,-0.312 -0.268,2.121 -0.649,0.641 -0.043,1.217 -0.204,-0.057 -0.314,1.398 -0.917,1.127 0.071,0.577 0.091,-0.508 -0.367,0.152 -0.756,1.588 -0.112,-0.24 -0.94,0.35 -0.337,-0.264 -1.726,1.686 -0.196,-0.161 -0.342,0.647 -0.97,0.155 -0.277,0.701 -0.119,-0.226 -1.272,0.129 -1.29,-0.334 -0.568,-0.677 -1.686,0.249 -1.51,-1.448 -1.284,-0.689"
     id="path278" />
</g>
<metadata
   id="metadata290">
  <rdf:RDF>
    <cc:Work
       rdf:about="">
      <dc:title>Oscpedale</dc:title>
    </cc:Work>
  </rdf:RDF>
</metadata>
</svg>
